<?xml version="1.0" standalone="no"?><!DOCTYPE svg PUBLIC "-//W3C//DTD SVG 1.1//EN" "http://www.w3.org/Graphics/SVG/1.1/DTD/svg11.dtd"><svg t="1736835139214" class="icon" viewBox="0 0 1024 1024" version="1.1" xmlns="http://www.w3.org/2000/svg" p-id="11320" xmlns:xlink="http://www.w3.org/1999/xlink" width="200" height="200"><path d="M552.675556 144.839111c154.908444 0 283.875556 117.333333 297.927111 269.511111a25.827556 25.827556 0 1 1-51.427556 4.750222c-11.605333-125.582222-118.243556-222.606222-246.499555-222.606222-123.363556 0-227.384889 90.026667-244.906667 209.749334a6.456889 6.456889 0 0 1-0.085333 0.398222 25.941333 25.941333 0 0 1-1.28 5.12l-0.284445 0.768-78.08 195.015111h37.831111c27.960889 0 51.057778 21.560889 53.191111 48.924444l0.142223 4.152889v134.4l0.056888 1.649778a30.435556 30.435556 0 0 0 29.923556 30.833778c4.522667 0.085333 8.817778-0.739556 13.937778-2.986667l4.010666-1.962667 131.726223-56.490666 93.781333-238.592c8.135111-20.707556 36.295111-21.788444 46.535111-3.271111l1.536 3.271111 97.763556 248.661333a25.827556 25.827556 0 0 1-46.705778 21.845333l-1.365333-2.929777-28.728889-73.045334h-89.998223l-28.700444 73.016889a25.827556 25.827556 0 0 1-10.808889 12.743111l-3.043555 1.564445-139.292445 59.562666a82.346667 82.346667 0 0 1-41.756444 10.24 82.119111 82.119111 0 0 1-80.440889-79.502222l-0.085334-1.848889v-137.159111c0-0.455111-0.312889-0.938667-0.824888-1.194666l-0.853334-0.227556H219.477333c-31.288889 0-51.996444-26.453333-44.231111-57.457778l1.137778-3.925333 80.696889-201.756445 0.739555-4.721777c24.376889-141.312 148.394667-246.499556 294.855112-246.499556z m233.528888 366.279111c13.255111 0 24.177778 9.955556 25.656889 22.812445l0.170667 3.015111v245.873778a25.827556 25.827556 0 0 1-51.484444 3.015111l-0.170667-3.015111v-245.873778c0-14.250667 11.576889-25.827556 25.827555-25.827556z m-169.528888 96.369778l-24.746667 62.862222h49.464889l-24.718222-62.862222z" fill="#000000" p-id="11321"></path></svg>