<?xml version="1.0" standalone="no"?><!DOCTYPE svg PUBLIC "-//W3C//DTD SVG 1.1//EN" "http://www.w3.org/Graphics/SVG/1.1/DTD/svg11.dtd"><svg t="1736836965270" class="icon" viewBox="0 0 1024 1024" version="1.1" xmlns="http://www.w3.org/2000/svg" p-id="22042" xmlns:xlink="http://www.w3.org/1999/xlink" width="200" height="200"><path d="M872 264.288a35.936 35.936 0 1 0 0-71.424H152a35.936 35.936 0 1 0 0 71.424z m0 283.328a35.936 35.936 0 1 0 0-71.424H466.304a35.936 35.936 0 1 0 0 71.424z m-754.368-48a16.736 16.736 0 0 0-1.568 23.488c0.416 0.512 1.024 1.024 1.568 1.568l171.712 149.792a8.384 8.384 0 0 0 13.856-6.4v-312.256a8.352 8.352 0 0 0-13.856-6.4z m34.368 259.968a35.936 35.936 0 1 0 0 71.424h720a35.936 35.936 0 1 0 0-71.424z" p-id="22043"></path></svg>